<svg width="174" height="223" viewBox="0 0 174 223" fill="none" xmlns="http://www.w3.org/2000/svg">
<path opacity="0.5" fill-rule="evenodd" clip-rule="evenodd" d="M101.5 204.417H72.5C45.1603 204.417 31.4867 204.417 22.997 193.527C14.5 182.646 14.5 165.122 14.5 130.083V92.9167C14.5 57.8778 14.5 40.3537 22.997 29.4732C31.4867 18.5833 45.2327 18.5833 72.7175 18.5833C77.111 18.5833 80.6272 18.5833 83.5925 18.7413C83.4982 19.4846 83.4475 20.2372 83.4475 21.0085L83.375 47.341C83.375 57.534 83.375 66.5469 84.1362 73.8037C84.9627 81.6737 86.855 89.5438 91.872 95.9736C96.8745 102.385 103.023 104.819 109.163 105.879C114.826 106.854 121.858 106.854 129.811 106.854H159.188C159.5 111.816 159.5 117.911 159.5 126.023V130.083C159.5 165.122 159.5 182.646 151.003 193.527C142.513 204.417 128.84 204.417 101.5 204.417Z" fill="white"/>
<path d="M83.4475 20.9992L83.375 47.341C83.375 57.534 83.375 66.5376 84.1362 73.8037C84.9627 81.6738 86.855 89.5438 91.872 95.9643C96.8745 102.385 103.023 104.819 109.163 105.879C114.826 106.854 121.858 106.854 129.811 106.854H159.188C159.283 108.294 159.348 109.837 159.391 111.5H159.5C159.5 109.01 159.5 107.765 159.427 106.297C158.869 97.4673 156.47 88.9922 152.482 81.7574C151.8 80.568 151.336 79.8619 150.416 78.4403C144.666 69.6318 137.098 58.649 130.5 51.1042C124.627 44.377 116.573 37.0273 109.547 31.0249C103.515 25.8587 100.5 23.2756 96.3598 21.3615C95.1556 20.8093 93.9313 20.3318 92.6912 19.9306C89.9072 19.0479 87.1958 18.7413 83.375 18.6298L83.4475 20.9992Z" fill="#CDCDCD"/>
<g clip-path="url(#clip0_30_66)">
<path d="M71.0469 139H43.9531C37.3516 139 32 144.352 32 150.953V178.047C32 184.648 37.3516 190 43.9531 190H71.0469C77.6484 190 83 184.648 83 178.047V150.953C83 144.352 77.6484 139 71.0469 139Z" fill="#394AAB"/>
<path d="M58.6955 145.574C65.6967 145.574 71.8095 149.377 75.0834 155.028L75.0516 154.974L66.8141 159.717C65.1912 156.969 62.2159 155.115 58.8029 155.077L58.6955 155.076C53.4907 155.076 49.2713 159.295 49.2713 164.5C49.2696 166.14 49.6981 167.752 50.5142 169.175C52.1386 172.011 55.1923 173.924 58.6955 173.924C62.2201 173.924 65.2912 171.987 66.9075 169.121L66.8683 169.19L75.0932 173.955C71.8551 179.559 65.8261 183.349 58.9063 183.425L58.6955 183.426C51.6721 183.426 45.5419 179.6 42.2761 173.918C40.6818 171.145 39.7695 167.929 39.7695 164.5C39.7695 154.048 48.2427 145.574 58.6955 145.574Z" fill="white"/>
</g>
<defs>
<clipPath id="clip0_30_66">
<rect width="51" height="51" fill="white" transform="translate(32 139)"/>
</clipPath>
</defs>
</svg>
