<svg width="174" height="223" viewBox="0 0 174 223" fill="none" xmlns="http://www.w3.org/2000/svg">
<path opacity="0.5" fill-rule="evenodd" clip-rule="evenodd" d="M101.5 204.417H72.5C45.1603 204.417 31.4867 204.417 22.997 193.527C14.5 182.646 14.5 165.122 14.5 130.083V92.9167C14.5 57.8778 14.5 40.3537 22.997 29.4732C31.4867 18.5833 45.2327 18.5833 72.7175 18.5833C77.111 18.5833 80.6272 18.5833 83.5925 18.7413C83.4982 19.4846 83.4475 20.2373 83.4475 21.0085L83.375 47.341C83.375 57.534 83.375 66.5469 84.1362 73.8037C84.9627 81.6738 86.855 89.5438 91.872 95.9736C96.8745 102.385 103.023 104.819 109.163 105.879C114.826 106.854 121.858 106.854 129.811 106.854H159.188C159.5 111.816 159.5 117.911 159.5 126.023V130.083C159.5 165.122 159.5 182.646 151.003 193.527C142.513 204.417 128.84 204.417 101.5 204.417Z" fill="white"/>
<path d="M83.4475 20.9992L83.375 47.341C83.375 57.534 83.375 66.5376 84.1362 73.8037C84.9627 81.6737 86.855 89.5438 91.872 95.9643C96.8745 102.385 103.023 104.819 109.163 105.879C114.826 106.854 121.858 106.854 129.811 106.854H159.188C159.283 108.294 159.348 109.837 159.391 111.5H159.5C159.5 109.01 159.5 107.765 159.427 106.297C158.869 97.4673 156.47 88.9922 152.482 81.7574C151.8 80.568 151.336 79.8619 150.416 78.4403C144.666 69.6318 137.098 58.649 130.5 51.1042C124.627 44.377 116.573 37.0273 109.547 31.0249C103.515 25.8587 100.5 23.2756 96.3598 21.3615C95.1556 20.8093 93.9313 20.3318 92.6912 19.9306C89.9072 19.0479 87.1958 18.7413 83.375 18.6298L83.4475 20.9992Z" fill="#CDCDCD"/>
<g clip-path="url(#clip0_30_17)">
<path d="M79 130H45C36.7157 130 30 136.716 30 145V179C30 187.284 36.7157 194 45 194H79C87.2843 194 94 187.284 94 179V145C94 136.716 87.2843 130 79 130Z" fill="#0277BD"/>
<path d="M43.4382 155.663L44.1538 163.648H62.024V155.663H43.4382ZM62.0238 139.5H42L42.726 147.486H62.0238V139.5ZM62.0238 184.71V176.402L61.9888 176.411L53.0952 174.01L52.5268 167.641H44.5105L45.6292 180.18L61.987 184.721L62.0238 184.71Z" fill="#EBEBEB"/>
<path d="M71.8295 163.648L70.9025 174.005L61.9963 176.409V184.716L78.367 180.18L78.487 178.83L80.3635 157.807L80.5583 155.663L82 139.5H61.9963V147.486H73.2485L72.522 155.663H61.9963V163.648H71.8295Z" fill="white"/>
</g>
<defs>
<clipPath id="clip0_30_17">
<rect width="64" height="64" fill="white" transform="translate(30 130)"/>
</clipPath>
</defs>
</svg>
