<svg width="174" height="223" viewBox="0 0 174 223" fill="none" xmlns="http://www.w3.org/2000/svg">
<path opacity="0.5" fill-rule="evenodd" clip-rule="evenodd" d="M101.5 204.417H72.5C45.1603 204.417 31.4867 204.417 22.997 193.527C14.5 182.646 14.5 165.122 14.5 130.083V92.9166C14.5 57.8778 14.5 40.3537 22.997 29.4731C31.4867 18.5833 45.2327 18.5833 72.7175 18.5833C77.111 18.5833 80.6272 18.5833 83.5925 18.7413C83.4982 19.4846 83.4475 20.2372 83.4475 21.0084L83.375 47.341C83.375 57.534 83.375 66.5469 84.1362 73.8037C84.9627 81.6737 86.855 89.5438 91.872 95.9736C96.8745 102.385 103.023 104.819 109.163 105.879C114.826 106.854 121.858 106.854 129.811 106.854H159.188C159.5 111.816 159.5 117.911 159.5 126.023V130.083C159.5 165.122 159.5 182.646 151.003 193.527C142.513 204.417 128.84 204.417 101.5 204.417Z" fill="white"/>
<path d="M83.4475 20.9992L83.375 47.3411C83.375 57.534 83.375 66.5377 84.1362 73.8037C84.9627 81.6738 86.855 89.5438 91.872 95.9644C96.8745 102.385 103.023 104.819 109.163 105.879C114.826 106.854 121.858 106.854 129.811 106.854H159.188C159.283 108.294 159.348 109.837 159.391 111.5H159.5C159.5 109.01 159.5 107.765 159.427 106.297C158.869 97.4673 156.47 88.9922 152.482 81.7574C151.8 80.5681 151.336 79.8619 150.416 78.4403C144.666 69.6318 137.098 58.649 130.5 51.1042C124.627 44.377 116.573 37.0273 109.547 31.0249C103.515 25.8587 100.5 23.2757 96.3598 21.3616C95.1556 20.8093 93.9313 20.3318 92.6912 19.9307C89.9072 19.0479 87.1958 18.7413 83.375 18.6298L83.4475 20.9992Z" fill="#CDCDCD"/>
<rect x="34" y="159" width="49" height="33" rx="16.5" fill="#016C2C"/>
<path d="M45.0568 180V171.273H50.3239V172.21H46.1136V175.159H50.0511V176.097H46.1136V179.062H50.392V180H45.0568ZM52.8423 173.455L54.4105 176.131L55.9787 173.455H57.1378L55.0241 176.727L57.1378 180H55.9787L54.4105 177.46L52.8423 180H51.6832L53.7628 176.727L51.6832 173.455H52.8423ZM60.9624 180.136C60.3487 180.136 59.8203 179.991 59.3771 179.702C58.9339 179.412 58.593 179.013 58.3544 178.504C58.1158 177.996 57.9964 177.415 57.9964 176.761C57.9964 176.097 58.1186 175.51 58.3629 175.001C58.6101 174.49 58.9538 174.091 59.3942 173.804C59.8374 173.514 60.3544 173.369 60.9453 173.369C61.4055 173.369 61.8203 173.455 62.1896 173.625C62.5589 173.795 62.8615 174.034 63.0973 174.341C63.3331 174.648 63.4794 175.006 63.5362 175.415H62.5305C62.4538 175.116 62.2834 174.852 62.0192 174.622C61.7578 174.389 61.4055 174.273 60.9624 174.273C60.5703 174.273 60.2266 174.375 59.9311 174.58C59.6385 174.781 59.4098 175.067 59.245 175.436C59.0831 175.803 59.0021 176.233 59.0021 176.727C59.0021 177.233 59.0817 177.673 59.2408 178.048C59.4027 178.423 59.63 178.714 59.9226 178.922C60.218 179.129 60.5646 179.233 60.9624 179.233C61.2237 179.233 61.4609 179.188 61.674 179.097C61.8871 179.006 62.0675 178.875 62.2152 178.705C62.3629 178.534 62.468 178.33 62.5305 178.091H63.5362C63.4794 178.477 63.3388 178.825 63.1143 179.135C62.8928 179.442 62.5987 179.686 62.2322 179.868C61.8686 180.047 61.4453 180.136 60.9624 180.136ZM67.7507 180.136C67.12 180.136 66.576 179.997 66.1186 179.719C65.6641 179.438 65.3132 179.045 65.0661 178.543C64.8217 178.037 64.6996 177.449 64.6996 176.778C64.6996 176.108 64.8217 175.517 65.0661 175.006C65.3132 174.491 65.657 174.091 66.0973 173.804C66.5405 173.514 67.0575 173.369 67.6484 173.369C67.9893 173.369 68.326 173.426 68.6584 173.54C68.9908 173.653 69.2933 173.838 69.5661 174.094C69.8388 174.347 70.0561 174.682 70.218 175.099C70.38 175.517 70.4609 176.031 70.4609 176.642V177.068H65.4155V176.199H69.4382C69.4382 175.83 69.3643 175.5 69.2166 175.21C69.0717 174.92 68.8643 174.692 68.5945 174.524C68.3274 174.357 68.0121 174.273 67.6484 174.273C67.2479 174.273 66.9013 174.372 66.6087 174.571C66.3189 174.767 66.0959 175.023 65.9396 175.338C65.7834 175.653 65.7053 175.991 65.7053 176.352V176.932C65.7053 177.426 65.7905 177.845 65.9609 178.189C66.1342 178.53 66.3743 178.79 66.6811 178.969C66.9879 179.145 67.3445 179.233 67.7507 179.233C68.0149 179.233 68.2536 179.196 68.4666 179.122C68.6825 179.045 68.8686 178.932 69.0249 178.781C69.1811 178.628 69.3018 178.437 69.3871 178.21L70.3587 178.483C70.2564 178.812 70.0845 179.102 69.843 179.352C69.6016 179.599 69.3033 179.793 68.9482 179.932C68.593 180.068 68.1939 180.136 67.7507 180.136ZM72.9964 171.273V180H71.9908V171.273H72.9964Z" fill="white"/>
</svg>
