<svg width="174" height="223" viewBox="0 0 174 223" fill="none" xmlns="http://www.w3.org/2000/svg">
<path opacity="0.5" fill-rule="evenodd" clip-rule="evenodd" d="M101.5 204.417H72.5C45.1603 204.417 31.4867 204.417 22.997 193.527C14.5 182.646 14.5 165.122 14.5 130.083V92.9167C14.5 57.8778 14.5 40.3537 22.997 29.4732C31.4867 18.5833 45.2327 18.5833 72.7175 18.5833C77.111 18.5833 80.6272 18.5833 83.5925 18.7413C83.4982 19.4846 83.4475 20.2373 83.4475 21.0085L83.375 47.341C83.375 57.534 83.375 66.5469 84.1362 73.8037C84.9627 81.6738 86.855 89.5438 91.872 95.9736C96.8745 102.385 103.023 104.819 109.163 105.879C114.826 106.854 121.858 106.854 129.811 106.854H159.188C159.5 111.816 159.5 117.911 159.5 126.023V130.083C159.5 165.122 159.5 182.646 151.003 193.527C142.513 204.417 128.84 204.417 101.5 204.417Z" fill="white"/>
<path d="M83.4475 20.9992L83.375 47.341C83.375 57.534 83.375 66.5376 84.1362 73.8037C84.9627 81.6737 86.855 89.5438 91.872 95.9643C96.8745 102.385 103.023 104.819 109.163 105.879C114.826 106.854 121.858 106.854 129.811 106.854H159.188C159.283 108.294 159.348 109.837 159.391 111.5H159.5C159.5 109.01 159.5 107.765 159.427 106.297C158.869 97.4673 156.47 88.9922 152.482 81.7574C151.8 80.568 151.336 79.8619 150.416 78.4403C144.666 69.6318 137.098 58.649 130.5 51.1042C124.627 44.377 116.573 37.0273 109.547 31.0249C103.515 25.8587 100.5 23.2756 96.3598 21.3615C95.1556 20.8093 93.9313 20.3318 92.6912 19.9306C89.9072 19.0479 87.1958 18.7413 83.375 18.6298L83.4475 20.9992Z" fill="#CDCDCD"/>
<g clip-path="url(#clip0_30_12)">
<path d="M69.875 135H40.125C32.8763 135 27 140.876 27 148.125V177.875C27 185.124 32.8763 191 40.125 191H69.875C77.1237 191 83 185.124 83 177.875V148.125C83 140.876 77.1237 135 69.875 135Z" fill="#E14E1D"/>
<path d="M37.5 143.312L39.3834 164.442H63.6013L62.7886 173.505L54.991 175.613L47.2081 173.508L46.6877 167.689H39.6744L40.6773 178.907L54.9895 182.882L69.3198 178.907L71.2411 157.456H45.774L45.1346 150.3H71.8742L72.5 143.312H37.5Z" fill="white"/>
<path d="M55 143.312H37.5L39.3834 164.442H55V157.456H45.774L45.1346 150.3H55V143.312ZM55 175.61L54.991 175.613L47.2081 173.508L46.6877 167.689H39.6744L40.6773 178.907L54.9895 182.882L55.0002 182.879L55 175.61Z" fill="#EBEBEB"/>
</g>
<defs>
<clipPath id="clip0_30_12">
<rect width="56" height="56" fill="white" transform="translate(27 135)"/>
</clipPath>
</defs>
</svg>
