<svg width="174" height="223" viewBox="0 0 174 223" fill="none" xmlns="http://www.w3.org/2000/svg">
<path opacity="0.5" fill-rule="evenodd" clip-rule="evenodd" d="M101.5 204.417H72.5C45.1603 204.417 31.4867 204.417 22.997 193.527C14.5 182.646 14.5 165.122 14.5 130.083V92.9167C14.5 57.8778 14.5 40.3537 22.997 29.4732C31.4867 18.5833 45.2327 18.5833 72.7175 18.5833C77.111 18.5833 80.6272 18.5833 83.5925 18.7413C83.4982 19.4846 83.4475 20.2373 83.4475 21.0085L83.375 47.341C83.375 57.534 83.375 66.5469 84.1362 73.8037C84.9627 81.6738 86.855 89.5438 91.872 95.9736C96.8745 102.385 103.023 104.819 109.163 105.879C114.826 106.854 121.858 106.854 129.811 106.854H159.188C159.5 111.816 159.5 117.911 159.5 126.023V130.083C159.5 165.122 159.5 182.646 151.003 193.527C142.513 204.417 128.84 204.417 101.5 204.417Z" fill="white"/>
<path d="M83.4475 20.9992L83.375 47.341C83.375 57.534 83.375 66.5376 84.1362 73.8037C84.9627 81.6737 86.855 89.5438 91.872 95.9643C96.8745 102.385 103.023 104.819 109.163 105.879C114.826 106.854 121.858 106.854 129.811 106.854H159.188C159.283 108.294 159.348 109.837 159.391 111.5H159.5C159.5 109.01 159.5 107.765 159.427 106.297C158.869 97.4673 156.47 88.9922 152.482 81.7574C151.8 80.568 151.336 79.8619 150.416 78.4403C144.666 69.6318 137.098 58.649 130.5 51.1042C124.627 44.377 116.573 37.0273 109.547 31.0249C103.515 25.8587 100.5 23.2756 96.3598 21.3615C95.1556 20.8093 93.9313 20.3318 92.6912 19.9306C89.9072 19.0479 87.1958 18.7413 83.375 18.6298L83.4475 20.9992Z" fill="#CDCDCD"/>
<path d="M28.3125 150.313C28.3125 139.267 37.2668 130.312 48.3125 130.312H68.6875C79.7332 130.312 88.6875 139.267 88.6875 150.313V170.687C88.6875 181.733 79.7332 190.688 68.6875 190.688H48.3125C37.2668 190.688 28.3125 181.733 28.3125 170.687V150.313Z" fill="#F5DE19"/>
<path d="M68.8694 177.48C69.3838 178.525 70.183 179.404 71.1749 180.014C72.1668 180.624 73.311 180.942 74.4757 180.93C76.826 180.93 78.3289 179.755 78.3289 178.127C78.3289 176.187 76.785 175.492 74.1975 174.36L72.7787 173.752C68.6818 172.008 65.9649 169.824 65.9649 165.205C65.9649 160.951 69.1993 157.71 74.273 157.71C75.9154 157.591 77.5564 157.959 78.9913 158.767C80.4261 159.575 81.5914 160.787 82.3417 162.253L77.9062 165.089C77.6174 164.362 77.1143 163.74 76.4639 163.305C75.8135 162.871 75.0464 162.645 74.2643 162.656C73.9231 162.622 73.5786 162.659 73.2526 162.766C72.9266 162.872 72.6263 163.045 72.3709 163.274C72.1155 163.503 71.9106 163.782 71.7692 164.095C71.6278 164.407 71.553 164.746 71.5496 165.089C71.5496 166.79 72.604 167.48 75.0384 168.539L76.4572 169.147C81.2786 171.214 84.0041 173.321 84.0041 178.058C84.0041 183.167 79.9913 185.965 74.6029 185.965C72.5033 186.099 70.41 185.622 68.5753 184.593C66.7407 183.563 65.2432 182.025 64.2637 180.163L68.8694 177.48ZM48.8271 177.972C49.7176 179.553 50.5283 180.89 52.4776 180.89C54.3406 180.89 55.5179 180.161 55.5179 177.325V158.033H61.191V177.401C61.191 183.274 57.741 185.948 52.7191 185.948C50.944 186.045 49.181 185.603 47.662 184.679C46.143 183.755 44.939 182.394 44.2084 180.773L48.8271 177.972Z" fill="black"/>
</svg>
