<svg width="174" height="223" viewBox="0 0 174 223" fill="none" xmlns="http://www.w3.org/2000/svg">
<path opacity="0.5" fill-rule="evenodd" clip-rule="evenodd" d="M101.5 204.417H72.5C45.1603 204.417 31.4867 204.417 22.997 193.527C14.5 182.646 14.5 165.122 14.5 130.083V92.9166C14.5 57.8778 14.5 40.3537 22.997 29.4731C31.4867 18.5833 45.2327 18.5833 72.7175 18.5833C77.111 18.5833 80.6272 18.5833 83.5925 18.7413C83.4982 19.4846 83.4475 20.2372 83.4475 21.0084L83.375 47.341C83.375 57.534 83.375 66.5469 84.1362 73.8037C84.9627 81.6737 86.855 89.5438 91.872 95.9736C96.8745 102.385 103.023 104.819 109.163 105.879C114.826 106.854 121.858 106.854 129.811 106.854H159.188C159.5 111.816 159.5 117.911 159.5 126.023V130.083C159.5 165.122 159.5 182.646 151.003 193.527C142.513 204.417 128.84 204.417 101.5 204.417Z" fill="white"/>
<path d="M83.4475 20.9992L83.375 47.3411C83.375 57.534 83.375 66.5377 84.1362 73.8037C84.9627 81.6738 86.855 89.5438 91.872 95.9644C96.8745 102.385 103.023 104.819 109.163 105.879C114.826 106.854 121.858 106.854 129.811 106.854H159.188C159.283 108.294 159.348 109.837 159.391 111.5H159.5C159.5 109.01 159.5 107.765 159.427 106.297C158.869 97.4673 156.47 88.9922 152.482 81.7574C151.8 80.5681 151.336 79.8619 150.416 78.4403C144.666 69.6318 137.098 58.649 130.5 51.1042C124.627 44.377 116.573 37.0273 109.547 31.0249C103.515 25.8587 100.5 23.2757 96.3598 21.3616C95.1556 20.8093 93.9313 20.3318 92.6912 19.9307C89.9072 19.0479 87.1958 18.7413 83.375 18.6298L83.4475 20.9992Z" fill="#CDCDCD"/>
<rect x="34" y="159" width="49" height="33" rx="16.5" fill="#212121"/>
<path d="M51.4205 175.636C51.4205 176.557 51.2543 177.352 50.9219 178.023C50.5895 178.693 50.1335 179.21 49.554 179.574C48.9744 179.938 48.3125 180.119 47.5682 180.119C46.8239 180.119 46.1619 179.938 45.5824 179.574C45.0028 179.21 44.5469 178.693 44.2145 178.023C43.8821 177.352 43.7159 176.557 43.7159 175.636C43.7159 174.716 43.8821 173.92 44.2145 173.25C44.5469 172.58 45.0028 172.062 45.5824 171.699C46.1619 171.335 46.8239 171.153 47.5682 171.153C48.3125 171.153 48.9744 171.335 49.554 171.699C50.1335 172.062 50.5895 172.58 50.9219 173.25C51.2543 173.92 51.4205 174.716 51.4205 175.636ZM50.3977 175.636C50.3977 174.881 50.2713 174.243 50.0185 173.723C49.7685 173.203 49.429 172.81 49 172.543C48.5739 172.276 48.0966 172.142 47.5682 172.142C47.0398 172.142 46.5611 172.276 46.1321 172.543C45.706 172.81 45.3665 173.203 45.1136 173.723C44.8636 174.243 44.7386 174.881 44.7386 175.636C44.7386 176.392 44.8636 177.03 45.1136 177.55C45.3665 178.07 45.706 178.463 46.1321 178.73C46.5611 178.997 47.0398 179.131 47.5682 179.131C48.0966 179.131 48.5739 178.997 49 178.73C49.429 178.463 49.7685 178.07 50.0185 177.55C50.2713 177.03 50.3977 176.392 50.3977 175.636ZM55.9077 173.455V174.307H52.5156V173.455H55.9077ZM53.5043 171.886H54.5099V178.125C54.5099 178.409 54.5511 178.622 54.6335 178.764C54.7188 178.903 54.8267 178.997 54.9574 179.045C55.0909 179.091 55.2315 179.114 55.3793 179.114C55.4901 179.114 55.581 179.108 55.652 179.097C55.723 179.082 55.7798 179.071 55.8224 179.062L56.027 179.966C55.9588 179.991 55.8636 180.017 55.7415 180.043C55.6193 180.071 55.4645 180.085 55.277 180.085C54.9929 180.085 54.7145 180.024 54.4418 179.902C54.1719 179.78 53.9474 179.594 53.7685 179.344C53.5923 179.094 53.5043 178.778 53.5043 178.398V171.886ZM58.5668 176.062V180H57.5611V171.273H58.5668V174.477H58.652C58.8054 174.139 59.0355 173.871 59.3423 173.672C59.652 173.47 60.0639 173.369 60.5781 173.369C61.0241 173.369 61.4148 173.459 61.75 173.638C62.0852 173.814 62.3452 174.085 62.5298 174.452C62.7173 174.815 62.8111 175.278 62.8111 175.841V180H61.8054V175.909C61.8054 175.389 61.6705 174.987 61.4006 174.703C61.1335 174.416 60.7628 174.273 60.2884 174.273C59.9588 174.273 59.6634 174.342 59.402 174.482C59.1435 174.621 58.9389 174.824 58.7884 175.091C58.6406 175.358 58.5668 175.682 58.5668 176.062ZM67.3952 180.136C66.7646 180.136 66.2205 179.997 65.7631 179.719C65.3086 179.438 64.9577 179.045 64.7106 178.543C64.4663 178.037 64.3441 177.449 64.3441 176.778C64.3441 176.108 64.4663 175.517 64.7106 175.006C64.9577 174.491 65.3015 174.091 65.7418 173.804C66.185 173.514 66.7021 173.369 67.293 173.369C67.6339 173.369 67.9705 173.426 68.3029 173.54C68.6353 173.653 68.9379 173.838 69.2106 174.094C69.4833 174.347 69.7006 174.682 69.8626 175.099C70.0245 175.517 70.1055 176.031 70.1055 176.642V177.068H65.06V176.199H69.0827C69.0827 175.83 69.0089 175.5 68.8612 175.21C68.7163 174.92 68.5089 174.692 68.239 174.524C67.9719 174.357 67.6566 174.273 67.293 174.273C66.8924 174.273 66.5458 174.372 66.2532 174.571C65.9634 174.767 65.7404 175.023 65.5842 175.338C65.4279 175.653 65.3498 175.991 65.3498 176.352V176.932C65.3498 177.426 65.435 177.845 65.6055 178.189C65.7788 178.53 66.0188 178.79 66.3256 178.969C66.6325 179.145 66.989 179.233 67.3952 179.233C67.6594 179.233 67.8981 179.196 68.1112 179.122C68.3271 179.045 68.5131 178.932 68.6694 178.781C68.8256 178.628 68.9464 178.437 69.0316 178.21L70.0032 178.483C69.9009 178.812 69.729 179.102 69.4876 179.352C69.2461 179.599 68.9478 179.793 68.5927 179.932C68.2376 180.068 67.8384 180.136 67.3952 180.136ZM71.6353 180V173.455H72.6069V174.443H72.6751C72.7944 174.119 73.0103 173.857 73.3228 173.655C73.6353 173.453 73.9876 173.352 74.3796 173.352C74.4535 173.352 74.5458 173.354 74.6566 173.357C74.7674 173.359 74.8512 173.364 74.908 173.369V174.392C74.8739 174.384 74.7958 174.371 74.6737 174.354C74.5543 174.334 74.4279 174.324 74.2944 174.324C73.9762 174.324 73.6921 174.391 73.4421 174.524C73.195 174.655 72.9989 174.837 72.854 175.07C72.712 175.3 72.641 175.562 72.641 175.858V180H71.6353Z" fill="white"/>
</svg>
