<svg width="174" height="223" viewBox="0 0 174 223" fill="none" xmlns="http://www.w3.org/2000/svg">
<path opacity="0.5" fill-rule="evenodd" clip-rule="evenodd" d="M101.5 204.417H72.5C45.1603 204.417 31.4867 204.417 22.997 193.527C14.5 182.646 14.5 165.122 14.5 130.083V92.9166C14.5 57.8778 14.5 40.3537 22.997 29.4731C31.4867 18.5833 45.2327 18.5833 72.7175 18.5833C77.111 18.5833 80.6272 18.5833 83.5925 18.7413C83.4982 19.4846 83.4475 20.2372 83.4475 21.0084L83.375 47.341C83.375 57.534 83.375 66.5469 84.1362 73.8037C84.9627 81.6737 86.855 89.5438 91.872 95.9736C96.8745 102.385 103.023 104.819 109.163 105.879C114.826 106.854 121.858 106.854 129.811 106.854H159.188C159.5 111.816 159.5 117.911 159.5 126.023V130.083C159.5 165.122 159.5 182.646 151.003 193.527C142.513 204.417 128.84 204.417 101.5 204.417Z" fill="white"/>
<path d="M83.4475 20.9992L83.375 47.3411C83.375 57.534 83.375 66.5377 84.1362 73.8037C84.9627 81.6738 86.855 89.5438 91.872 95.9644C96.8745 102.385 103.023 104.819 109.163 105.879C114.826 106.854 121.858 106.854 129.811 106.854H159.188C159.283 108.294 159.348 109.837 159.391 111.5H159.5C159.5 109.01 159.5 107.765 159.427 106.297C158.869 97.4673 156.47 88.9922 152.482 81.7574C151.8 80.5681 151.336 79.8619 150.416 78.4403C144.666 69.6318 137.098 58.649 130.5 51.1042C124.627 44.377 116.573 37.0273 109.547 31.0249C103.515 25.8587 100.5 23.2757 96.3598 21.3616C95.1556 20.8093 93.9313 20.3318 92.6912 19.9307C89.9072 19.0479 87.1958 18.7413 83.375 18.6298L83.4475 20.9992Z" fill="#CDCDCD"/>
<rect x="34" y="159" width="49" height="33" rx="16.5" fill="#D7000D"/>
<path d="M49.0568 180V171.273H52.0057C52.6903 171.273 53.25 171.396 53.6847 171.643C54.1222 171.888 54.446 172.219 54.6562 172.636C54.8665 173.054 54.9716 173.52 54.9716 174.034C54.9716 174.548 54.8665 175.016 54.6562 175.436C54.4489 175.857 54.1278 176.192 53.6932 176.442C53.2585 176.689 52.7017 176.812 52.0227 176.812H49.9091V175.875H51.9886C52.4574 175.875 52.8338 175.794 53.1179 175.632C53.402 175.47 53.608 175.251 53.7358 174.976C53.8665 174.697 53.9318 174.384 53.9318 174.034C53.9318 173.685 53.8665 173.372 53.7358 173.097C53.608 172.821 53.4006 172.605 53.1136 172.449C52.8267 172.29 52.446 172.21 51.9716 172.21H50.1136V180H49.0568ZM58.9389 180.136C58.3935 180.136 57.9119 179.999 57.4943 179.723C57.0767 179.445 56.75 179.053 56.5142 178.547C56.2784 178.038 56.1605 177.438 56.1605 176.744C56.1605 176.057 56.2784 175.46 56.5142 174.955C56.75 174.449 57.0781 174.058 57.4986 173.783C57.919 173.507 58.4048 173.369 58.956 173.369C59.3821 173.369 59.7188 173.44 59.9659 173.582C60.2159 173.722 60.4063 173.881 60.5369 174.06C60.6705 174.236 60.7741 174.381 60.848 174.494H60.9332V171.273H61.9389V180H60.9673V178.994H60.848C60.7741 179.114 60.669 179.264 60.5327 179.446C60.3963 179.625 60.2017 179.786 59.9489 179.928C59.696 180.067 59.3594 180.136 58.9389 180.136ZM59.0753 179.233C59.4787 179.233 59.8196 179.128 60.098 178.918C60.3764 178.705 60.5881 178.411 60.733 178.036C60.8778 177.658 60.9503 177.222 60.9503 176.727C60.9503 176.239 60.8793 175.811 60.7372 175.445C60.5952 175.075 60.3849 174.788 60.1065 174.584C59.8281 174.376 59.4844 174.273 59.0753 174.273C58.6491 174.273 58.294 174.382 58.0099 174.601C57.7287 174.817 57.517 175.111 57.375 175.483C57.2358 175.852 57.1662 176.267 57.1662 176.727C57.1662 177.193 57.2372 177.616 57.3793 177.997C57.5241 178.375 57.7372 178.676 58.0185 178.901C58.3026 179.122 58.6548 179.233 59.0753 179.233ZM66.8352 173.455V174.307H63.3068V173.455H66.8352ZM64.3636 180V172.551C64.3636 172.176 64.4517 171.864 64.6278 171.614C64.804 171.364 65.0327 171.176 65.3139 171.051C65.5952 170.926 65.892 170.864 66.2045 170.864C66.4517 170.864 66.6534 170.884 66.8097 170.923C66.9659 170.963 67.0824 171 67.1591 171.034L66.8693 171.903C66.8182 171.886 66.7472 171.865 66.6562 171.839C66.5682 171.814 66.4517 171.801 66.3068 171.801C65.9744 171.801 65.7344 171.885 65.5866 172.053C65.4418 172.22 65.3693 172.466 65.3693 172.79V180H64.3636Z" fill="white"/>
</svg>
