<svg width="174" height="223" viewBox="0 0 174 223" fill="none" xmlns="http://www.w3.org/2000/svg">
<path opacity="0.5" fill-rule="evenodd" clip-rule="evenodd" d="M101.5 204.417H72.5C45.1603 204.417 31.4867 204.417 22.997 193.527C14.5 182.646 14.5 165.122 14.5 130.083V92.9166C14.5 57.8778 14.5 40.3537 22.997 29.4731C31.4867 18.5833 45.2327 18.5833 72.7175 18.5833C77.111 18.5833 80.6272 18.5833 83.5925 18.7413C83.4982 19.4846 83.4475 20.2372 83.4475 21.0084L83.375 47.341C83.375 57.534 83.375 66.5469 84.1362 73.8037C84.9627 81.6737 86.855 89.5438 91.872 95.9736C96.8745 102.385 103.023 104.819 109.163 105.879C114.826 106.854 121.858 106.854 129.811 106.854H159.188C159.5 111.816 159.5 117.911 159.5 126.023V130.083C159.5 165.122 159.5 182.646 151.003 193.527C142.513 204.417 128.84 204.417 101.5 204.417Z" fill="white"/>
<path d="M83.4475 20.9992L83.375 47.3411C83.375 57.534 83.375 66.5377 84.1362 73.8037C84.9627 81.6738 86.855 89.5438 91.872 95.9644C96.8745 102.385 103.023 104.819 109.163 105.879C114.826 106.854 121.858 106.854 129.811 106.854H159.188C159.283 108.294 159.348 109.837 159.391 111.5H159.5C159.5 109.01 159.5 107.765 159.427 106.297C158.869 97.4673 156.47 88.9922 152.482 81.7574C151.8 80.5681 151.336 79.8619 150.416 78.4403C144.666 69.6318 137.098 58.649 130.5 51.1042C124.627 44.377 116.573 37.0273 109.547 31.0249C103.515 25.8587 100.5 23.2757 96.3598 21.3616C95.1556 20.8093 93.9313 20.3318 92.6912 19.9307C89.9072 19.0479 87.1958 18.7413 83.375 18.6298L83.4475 20.9992Z" fill="#CDCDCD"/>
<path d="M29 172.5C29 181.651 43.1031 189.07 60.5 189.07C77.8969 189.07 92 181.651 92 172.5C92 163.349 77.8964 155.93 60.5 155.93C43.1031 155.93 29 163.349 29 172.5Z" fill="url(#paint0_radial_30_2)"/>
<path d="M60.5 187.84C77.2171 187.84 90.7695 180.972 90.7695 172.5C90.7695 164.027 77.2171 157.16 60.5 157.16C43.7829 157.16 30.2305 164.027 30.2305 172.5C30.2305 180.972 43.7829 187.84 60.5 187.84Z" fill="#777BB3"/>
<path d="M46.1143 174.402C47.489 174.402 48.5147 174.148 49.1639 173.649C49.8067 173.154 50.2502 172.297 50.483 171.102C50.6995 169.984 50.6169 169.205 50.2369 168.784C49.849 168.353 49.0099 168.135 47.743 168.135H45.5459L44.3287 174.402H46.1143ZM38.9289 182.121C38.8785 182.121 38.8287 182.11 38.7831 182.088C38.7376 182.066 38.6974 182.035 38.6654 181.996C38.6334 181.957 38.6104 181.911 38.5981 181.863C38.5858 181.814 38.5845 181.763 38.5942 181.713L41.8215 165.108C41.8367 165.03 41.8784 164.96 41.9394 164.91C42.0005 164.86 42.077 164.832 42.1562 164.832H49.1127C51.299 164.832 52.9262 165.425 53.9495 166.596C54.9772 167.773 55.2951 169.418 54.893 171.486C54.7291 172.328 54.4476 173.11 54.0563 173.811C53.6489 174.532 53.1292 175.183 52.5167 175.741C51.7632 176.445 50.9102 176.957 49.9834 177.258C49.0719 177.555 47.9005 177.706 46.5036 177.706H43.6864L42.8821 181.844C42.8669 181.922 42.8252 181.992 42.7639 182.043C42.7027 182.093 42.6258 182.121 42.5465 182.121H38.9289Z" fill="black"/>
<path d="M45.8279 168.477H47.743C49.2722 168.477 49.8033 168.813 49.9839 169.013C50.2827 169.345 50.3398 170.045 50.1468 171.037C49.9307 172.148 49.5301 172.936 48.9557 173.378C48.368 173.83 47.4112 174.06 46.1143 174.06H44.7431L45.8279 168.477ZM49.1127 164.49H42.1566C41.998 164.49 41.8443 164.545 41.7219 164.646C41.5994 164.747 41.5158 164.887 41.4853 165.043L38.258 181.649C38.239 181.748 38.242 181.85 38.2669 181.947C38.2917 182.045 38.3379 182.136 38.402 182.213C38.4661 182.291 38.5465 182.354 38.6376 182.397C38.7287 182.44 38.8281 182.462 38.9289 182.462H42.5465C42.7051 182.462 42.8587 182.407 42.9811 182.306C43.1034 182.205 43.187 182.065 43.2173 181.909L43.9679 178.047H46.5031C47.9364 178.047 49.1432 177.891 50.0897 177.583C51.0628 177.267 51.9581 176.731 52.7505 175.99C53.3885 175.408 53.93 174.729 54.3545 173.978C54.7635 173.246 55.0579 172.429 55.2282 171.551C55.6514 169.374 55.3074 167.631 54.2064 166.371C53.1157 165.123 51.4019 164.49 49.1127 164.49V164.49ZM43.9138 174.743H46.1143C47.5727 174.743 48.6589 174.469 49.3726 173.918C50.0868 173.369 50.5676 172.452 50.8187 171.167C51.0574 169.932 50.9486 169.062 50.4913 168.554C50.0331 168.047 49.1177 167.793 47.743 167.793H45.2643L43.9138 174.743ZM49.1132 165.172C51.206 165.172 52.7323 165.722 53.692 166.82C54.6518 167.919 54.9402 169.452 54.5583 171.42C54.3998 172.231 54.1335 172.973 53.7585 173.644C53.3825 174.316 52.8922 174.93 52.2864 175.488C51.5638 176.164 50.762 176.646 49.8786 176.933C48.9956 177.22 47.8704 177.363 46.5036 177.363H43.4048L42.5469 181.778H38.9294L42.1571 165.172H49.1132Z" fill="white"/>
<path d="M63.1868 177.706C63.1364 177.706 63.0866 177.695 63.0409 177.673C62.9953 177.652 62.955 177.621 62.9229 177.582C62.8908 177.543 62.8677 177.497 62.8553 177.448C62.8429 177.399 62.8415 177.348 62.8512 177.299L64.2785 169.951C64.4148 169.253 64.3814 168.752 64.185 168.539C64.0644 168.409 63.7031 168.192 62.6346 168.192H60.0477L58.2531 177.43C58.2377 177.508 58.1958 177.578 58.1345 177.628C58.0732 177.678 57.9963 177.706 57.917 177.705H54.3289C54.2785 177.705 54.2287 177.694 54.1831 177.673C54.1375 177.651 54.0972 177.62 54.0651 177.581C54.033 177.542 54.0098 177.497 53.9973 177.448C53.9848 177.399 53.9833 177.348 53.9928 177.299L57.2205 160.693C57.2358 160.615 57.2776 160.545 57.3389 160.495C57.4001 160.444 57.4769 160.417 57.5562 160.417H61.1442C61.1947 160.417 61.2444 160.428 61.2901 160.449C61.3357 160.471 61.376 160.502 61.4081 160.541C61.4402 160.58 61.4634 160.625 61.4759 160.674C61.4884 160.723 61.4899 160.774 61.4804 160.823L60.7018 164.832H63.4841C65.604 164.832 67.0411 165.205 67.8784 165.974C68.7313 166.758 68.9981 168.012 68.6698 169.701L67.1681 177.43C67.1527 177.507 67.1109 177.577 67.0497 177.628C66.9884 177.678 66.9117 177.705 66.8325 177.705L63.1868 177.706Z" fill="black"/>
<path d="M61.1447 160.075H57.5562C57.3975 160.075 57.2438 160.13 57.1213 160.231C56.9988 160.332 56.9152 160.472 56.8849 160.628L53.6576 177.233C53.6385 177.332 53.6414 177.434 53.6663 177.532C53.6911 177.63 53.7372 177.721 53.8013 177.798C53.8654 177.876 53.9459 177.939 54.037 177.982C54.1281 178.025 54.2277 178.047 54.3284 178.047H57.917C58.0757 178.047 58.2294 177.992 58.3519 177.891C58.4744 177.79 58.558 177.65 58.5883 177.494L60.3292 168.534H62.6336C63.7007 168.534 63.9251 168.762 63.9335 168.772C63.9985 168.841 64.0836 169.163 63.9428 169.886L62.5155 177.233C62.4963 177.332 62.4993 177.434 62.5242 177.532C62.5491 177.63 62.5952 177.721 62.6594 177.799C62.7235 177.876 62.8041 177.939 62.8953 177.982C62.9864 178.025 63.086 178.047 63.1868 178.047H66.833C66.9916 178.047 67.1452 177.992 67.2676 177.891C67.39 177.79 67.4735 177.65 67.5038 177.494L69.0055 169.767C69.3574 167.953 69.0562 166.592 68.1097 165.723C67.206 164.893 65.6931 164.49 63.4841 164.49H61.1167L61.8161 160.889C61.8353 160.79 61.8324 160.688 61.8076 160.59C61.7828 160.493 61.7366 160.402 61.6724 160.324C61.6083 160.246 61.5277 160.183 61.4365 160.14C61.3452 160.097 61.2456 160.075 61.1447 160.075ZM61.1447 160.759L60.2869 165.173H63.4841C65.4957 165.173 66.8837 165.524 67.6465 166.226C68.4109 166.928 68.6393 168.064 68.3346 169.637L66.8325 177.364H63.1868L64.6147 170.016C64.7771 169.181 64.717 168.611 64.435 168.307C64.153 168.003 63.5525 167.851 62.6346 167.851H59.7656L57.917 177.363H54.328L57.5557 160.757H61.1447V160.759Z" fill="white"/>
<path d="M74.3482 174.402C75.7229 174.402 76.7491 174.148 77.3988 173.649C78.0406 173.154 78.4846 172.297 78.7174 171.102C78.9339 169.984 78.8517 169.205 78.4713 168.784C78.0834 168.353 77.2442 168.135 75.9774 168.135H73.7807L72.5626 174.402H74.3482ZM67.1642 182.121C67.1138 182.121 67.0639 182.11 67.0182 182.088C66.9725 182.067 66.9322 182.035 66.9001 181.996C66.868 181.957 66.8449 181.912 66.8325 181.863C66.8202 181.814 66.8188 181.763 66.8286 181.713L70.0558 165.108C70.0711 165.03 70.113 164.96 70.1742 164.91C70.2354 164.859 70.3122 164.832 70.3915 164.832H77.3476C79.5339 164.832 81.1611 165.425 82.1838 166.596C83.212 167.773 83.5295 169.418 83.1274 171.486C82.9737 172.301 82.6914 173.085 82.2911 173.811C81.8837 174.532 81.364 175.183 80.7516 175.741C79.9985 176.445 79.1446 176.957 78.2183 177.258C77.3067 177.555 76.1353 177.706 74.738 177.706H71.9212L71.1175 181.844C71.1023 181.922 71.0604 181.992 70.9991 182.043C70.9378 182.093 70.8608 182.121 70.7813 182.121H67.1642Z" fill="black"/>
<path d="M74.0622 168.477H75.9773C77.5066 168.477 78.0376 168.813 78.2178 169.013C78.518 169.345 78.5741 170.045 78.3817 171.037C78.1651 172.148 77.7645 172.936 77.1901 173.378C76.6019 173.83 75.6451 174.06 74.3487 174.06H72.9775L74.0622 168.477ZM77.3471 164.49H70.391C70.2325 164.49 70.0789 164.545 69.9565 164.646C69.8342 164.747 69.7506 164.887 69.7202 165.043L66.4924 181.649C66.4733 181.748 66.4764 181.85 66.5013 181.947C66.5262 182.045 66.5724 182.136 66.6365 182.214C66.7006 182.291 66.7812 182.354 66.8723 182.397C66.9634 182.44 67.063 182.462 67.1637 182.462H70.7813C70.9399 182.462 71.0936 182.407 71.2159 182.306C71.3383 182.205 71.4218 182.065 71.4522 181.909L72.2028 178.047H74.7375C76.1703 178.047 77.3776 177.891 78.3236 177.583C79.2971 177.267 80.1924 176.731 80.9854 175.989C81.6232 175.408 82.1645 174.729 82.5889 173.978C82.9984 173.246 83.2917 172.429 83.4625 171.551C83.8858 169.374 83.5423 167.631 82.4408 166.371C81.3501 165.123 79.6368 164.49 77.3466 164.49L77.3471 164.49ZM72.1481 174.743H74.3482C75.807 174.743 76.8928 174.469 77.6075 173.918C78.3211 173.369 78.8025 172.452 79.0525 171.167C79.2922 169.932 79.1835 169.062 78.7252 168.554C78.2675 168.047 77.3515 167.793 75.9773 167.793H73.4992L72.1481 174.743ZM77.3471 165.172C79.4394 165.172 80.9666 165.722 81.9259 166.82C82.8857 167.919 83.1746 169.452 82.7917 171.42C82.6342 172.231 82.3674 172.973 81.9924 173.644C81.6168 174.316 81.1261 174.93 80.5197 175.488C79.7977 176.164 78.9954 176.646 78.112 176.933C77.2295 177.22 76.1048 177.363 74.7375 177.363H71.6392L70.7803 181.778H67.1628L70.3905 165.172H77.3471Z" fill="white"/>
<defs>
<radialGradient id="paint0_radial_30_2" cx="0" cy="0" r="1" gradientUnits="userSpaceOnUse" gradientTransform="translate(47.9128 161.755) scale(41.3641)">
<stop stop-color="#AEB2D5"/>
<stop offset="0.3" stop-color="#AEB2D5"/>
<stop offset="0.75" stop-color="#484C89"/>
<stop offset="1" stop-color="#484C89"/>
</radialGradient>
</defs>
</svg>
