<svg width="174" height="223" viewBox="0 0 174 223" fill="none" xmlns="http://www.w3.org/2000/svg">
<path opacity="0.5" fill-rule="evenodd" clip-rule="evenodd" d="M101.5 204.417H72.5C45.1603 204.417 31.4867 204.417 22.997 193.527C14.5 182.646 14.5 165.122 14.5 130.083V92.9166C14.5 57.8778 14.5 40.3537 22.997 29.4731C31.4867 18.5833 45.2327 18.5833 72.7175 18.5833C77.111 18.5833 80.6272 18.5833 83.5925 18.7413C83.4982 19.4846 83.4475 20.2372 83.4475 21.0084L83.375 47.341C83.375 57.534 83.375 66.5469 84.1362 73.8037C84.9627 81.6737 86.855 89.5438 91.872 95.9736C96.8745 102.385 103.023 104.819 109.163 105.879C114.826 106.854 121.858 106.854 129.811 106.854H159.188C159.5 111.816 159.5 117.911 159.5 126.023V130.083C159.5 165.122 159.5 182.646 151.003 193.527C142.513 204.417 128.84 204.417 101.5 204.417Z" fill="white"/>
<path d="M83.4475 20.9992L83.375 47.3411C83.375 57.534 83.375 66.5377 84.1362 73.8037C84.9627 81.6738 86.855 89.5438 91.872 95.9644C96.8745 102.385 103.023 104.819 109.163 105.879C114.826 106.854 121.858 106.854 129.811 106.854H159.188C159.283 108.294 159.348 109.837 159.391 111.5H159.5C159.5 109.01 159.5 107.765 159.427 106.297C158.869 97.4673 156.47 88.9922 152.482 81.7574C151.8 80.5681 151.336 79.8619 150.416 78.4403C144.666 69.6318 137.098 58.649 130.5 51.1042C124.627 44.377 116.573 37.0273 109.547 31.0249C103.515 25.8587 100.5 23.2757 96.3598 21.3616C95.1556 20.8093 93.9313 20.3318 92.6912 19.9307C89.9072 19.0479 87.1958 18.7413 83.375 18.6298L83.4475 20.9992Z" fill="#CDCDCD"/>
<rect x="34" y="159" width="49" height="33" rx="16.5" fill="#5E1414"/>
<path d="M49.0568 180V171.273H52.0057C52.6903 171.273 53.25 171.396 53.6847 171.643C54.1222 171.888 54.446 172.219 54.6562 172.636C54.8665 173.054 54.9716 173.52 54.9716 174.034C54.9716 174.548 54.8665 175.016 54.6562 175.436C54.4489 175.857 54.1278 176.192 53.6932 176.442C53.2585 176.689 52.7017 176.812 52.0227 176.812H49.9091V175.875H51.9886C52.4574 175.875 52.8338 175.794 53.1179 175.632C53.402 175.47 53.608 175.251 53.7358 174.976C53.8665 174.697 53.9318 174.384 53.9318 174.034C53.9318 173.685 53.8665 173.372 53.7358 173.097C53.608 172.821 53.4006 172.605 53.1136 172.449C52.8267 172.29 52.446 172.21 51.9716 172.21H50.1136V180H49.0568ZM56.5376 182.455V173.455H57.5092V174.494H57.6286C57.7024 174.381 57.8047 174.236 57.9354 174.06C58.0689 173.881 58.2592 173.722 58.5064 173.582C58.7564 173.44 59.0945 173.369 59.5206 173.369C60.0717 173.369 60.5575 173.507 60.978 173.783C61.3984 174.058 61.7266 174.449 61.9624 174.955C62.1982 175.46 62.3161 176.057 62.3161 176.744C62.3161 177.438 62.1982 178.038 61.9624 178.547C61.7266 179.053 61.3999 179.445 60.9822 179.723C60.5646 179.999 60.0831 180.136 59.5376 180.136C59.1172 180.136 58.7805 180.067 58.5277 179.928C58.2749 179.786 58.0803 179.625 57.9439 179.446C57.8075 179.264 57.7024 179.114 57.6286 178.994H57.5433V182.455H56.5376ZM57.5263 176.727C57.5263 177.222 57.5987 177.658 57.7436 178.036C57.8885 178.411 58.1001 178.705 58.3786 178.918C58.657 179.128 58.9979 179.233 59.4013 179.233C59.8217 179.233 60.1726 179.122 60.4538 178.901C60.7379 178.676 60.951 178.375 61.093 177.997C61.2379 177.616 61.3104 177.193 61.3104 176.727C61.3104 176.267 61.2393 175.852 61.0973 175.483C60.9581 175.111 60.7464 174.817 60.4624 174.601C60.1811 174.382 59.8274 174.273 59.4013 174.273C58.9922 174.273 58.6484 174.376 58.37 174.584C58.0916 174.788 57.8814 175.075 57.7393 175.445C57.5973 175.811 57.5263 176.239 57.5263 176.727ZM66.6967 173.455V174.307H63.3047V173.455H66.6967ZM64.2933 171.886H65.299V178.125C65.299 178.409 65.3402 178.622 65.4226 178.764C65.5078 178.903 65.6158 178.997 65.7464 179.045C65.88 179.091 66.0206 179.114 66.1683 179.114C66.2791 179.114 66.37 179.108 66.4411 179.097C66.5121 179.082 66.5689 179.071 66.6115 179.062L66.8161 179.966C66.7479 179.991 66.6527 180.017 66.5305 180.043C66.4084 180.071 66.2536 180.085 66.0661 180.085C65.782 180.085 65.5036 180.024 65.2308 179.902C64.9609 179.78 64.7365 179.594 64.5575 179.344C64.3814 179.094 64.2933 178.778 64.2933 178.398V171.886Z" fill="white"/>
</svg>
