<svg width="174" height="223" viewBox="0 0 174 223" fill="none" xmlns="http://www.w3.org/2000/svg">
<path opacity="0.5" fill-rule="evenodd" clip-rule="evenodd" d="M101.5 204.417H72.5C45.1603 204.417 31.4867 204.417 22.997 193.527C14.5 182.646 14.5 165.122 14.5 130.083V92.9167C14.5 57.8778 14.5 40.3537 22.997 29.4732C31.4867 18.5833 45.2327 18.5833 72.7175 18.5833C77.111 18.5833 80.6272 18.5833 83.5925 18.7413C83.4982 19.4846 83.4475 20.2372 83.4475 21.0085L83.375 47.341C83.375 57.534 83.375 66.5469 84.1362 73.8037C84.9627 81.6737 86.855 89.5438 91.872 95.9736C96.8745 102.385 103.023 104.819 109.163 105.879C114.826 106.854 121.858 106.854 129.811 106.854H159.188C159.5 111.816 159.5 117.911 159.5 126.023V130.083C159.5 165.122 159.5 182.646 151.003 193.527C142.513 204.417 128.84 204.417 101.5 204.417Z" fill="white"/>
<path d="M83.4475 20.9992L83.375 47.341C83.375 57.534 83.375 66.5376 84.1362 73.8037C84.9627 81.6738 86.855 89.5438 91.872 95.9643C96.8745 102.385 103.023 104.819 109.163 105.879C114.826 106.854 121.858 106.854 129.811 106.854H159.188C159.283 108.294 159.348 109.837 159.391 111.5H159.5C159.5 109.01 159.5 107.765 159.427 106.297C158.869 97.4673 156.47 88.9922 152.482 81.7574C151.8 80.568 151.336 79.8619 150.416 78.4403C144.666 69.6318 137.098 58.649 130.5 51.1042C124.627 44.377 116.573 37.0273 109.547 31.0249C103.515 25.8587 100.5 23.2756 96.3598 21.3615C95.1556 20.8093 93.9313 20.3318 92.6912 19.9306C89.9072 19.0479 87.1958 18.7413 83.375 18.6298L83.4475 20.9992Z" fill="#CDCDCD"/>
<g clip-path="url(#clip0_30_22)">
<path d="M61.2841 138.014C48.3683 138.014 49.1748 143.637 49.1748 143.637L49.1891 149.463H61.5144V151.212H44.2937C44.2937 151.212 36.0289 150.271 36.0289 163.354C36.0289 176.437 43.2426 175.973 43.2426 175.973H47.5478V169.902C47.5478 169.902 47.3157 162.66 54.6463 162.66H66.8708C66.8708 162.66 73.7389 162.772 73.7389 155.996V144.794C73.7389 144.794 74.782 138.014 61.2841 138.014ZM54.4879 141.932C54.7792 141.932 55.0676 141.989 55.3368 142.101C55.6059 142.213 55.8505 142.377 56.0564 142.583C56.2623 142.79 56.4257 143.036 56.537 143.306C56.6483 143.576 56.7055 143.866 56.7052 144.158C56.7055 144.45 56.6483 144.74 56.537 145.01C56.4257 145.28 56.2623 145.526 56.0564 145.733C55.8505 145.939 55.6059 146.103 55.3368 146.215C55.0676 146.327 54.7792 146.384 54.4879 146.384C54.1967 146.384 53.9082 146.327 53.6391 146.215C53.37 146.103 53.1254 145.939 52.9195 145.733C52.7135 145.526 52.5502 145.28 52.4389 145.01C52.3276 144.74 52.2704 144.45 52.2706 144.158C52.2704 143.866 52.3276 143.576 52.4389 143.306C52.5502 143.036 52.7135 142.79 52.9195 142.583C53.1254 142.377 53.37 142.213 53.6391 142.101C53.9082 141.989 54.1967 141.932 54.4879 141.932Z" fill="url(#paint0_linear_30_22)"/>
<path d="M61.6508 188.825C74.5665 188.825 73.7601 183.202 73.7601 183.202L73.7457 177.377H61.4203V175.628H78.6409C78.6409 175.628 86.9057 176.569 86.9057 163.485C86.9057 150.402 79.692 150.866 79.692 150.866H75.3869V156.937C75.3869 156.937 75.619 164.179 68.2883 164.179H56.0639C56.0639 164.179 49.1958 164.068 49.1958 170.843V182.046C49.1958 182.046 48.1529 188.825 61.6506 188.825M68.4467 184.908C68.1555 184.908 67.867 184.851 67.5979 184.739C67.3287 184.627 67.0842 184.463 66.8783 184.257C66.6723 184.05 66.509 183.804 66.3977 183.534C66.2863 183.264 66.2291 182.974 66.2294 182.682C66.2291 182.39 66.2863 182.1 66.3976 181.83C66.5089 181.56 66.6722 181.314 66.8782 181.107C67.0841 180.9 67.3287 180.737 67.5978 180.625C67.867 180.513 68.1554 180.456 68.4467 180.456C68.738 180.456 69.0264 180.513 69.2956 180.625C69.5647 180.736 69.8092 180.9 70.0152 181.107C70.2211 181.314 70.3844 181.559 70.4958 181.83C70.6071 182.1 70.6643 182.389 70.664 182.682C70.6643 182.974 70.6071 183.264 70.4958 183.534C70.3844 183.804 70.2211 184.05 70.0152 184.256C69.8092 184.463 69.5647 184.627 69.2956 184.739C69.0264 184.851 68.738 184.908 68.4467 184.908Z" fill="url(#paint1_linear_30_22)"/>
</g>
<defs>
<linearGradient id="paint0_linear_30_22" x1="524.954" y1="595.027" x2="3056.03" y2="3091.06" gradientUnits="userSpaceOnUse">
<stop stop-color="#387EB8"/>
<stop offset="1" stop-color="#366994"/>
</linearGradient>
<linearGradient id="paint1_linear_30_22" x1="770.85" y1="932.064" x2="3488.44" y2="3491.05" gradientUnits="userSpaceOnUse">
<stop stop-color="#FFE052"/>
<stop offset="1" stop-color="#FFC331"/>
</linearGradient>
<clipPath id="clip0_30_22">
<rect width="51" height="51" fill="white" transform="translate(36 138)"/>
</clipPath>
</defs>
</svg>
