<svg width="174" height="223" viewBox="0 0 174 223" fill="none" xmlns="http://www.w3.org/2000/svg">
<path opacity="0.5" fill-rule="evenodd" clip-rule="evenodd" d="M101.5 204.417H72.5C45.1603 204.417 31.4867 204.417 22.997 193.527C14.5 182.646 14.5 165.122 14.5 130.083V92.9166C14.5 57.8778 14.5 40.3537 22.997 29.4731C31.4867 18.5833 45.2327 18.5833 72.7175 18.5833C77.111 18.5833 80.6272 18.5833 83.5925 18.7413C83.4982 19.4846 83.4475 20.2372 83.4475 21.0084L83.375 47.341C83.375 57.534 83.375 66.5469 84.1362 73.8037C84.9627 81.6737 86.855 89.5438 91.872 95.9736C96.8745 102.385 103.023 104.819 109.163 105.879C114.826 106.854 121.858 106.854 129.811 106.854H159.188C159.5 111.816 159.5 117.911 159.5 126.023V130.083C159.5 165.122 159.5 182.646 151.003 193.527C142.513 204.417 128.84 204.417 101.5 204.417Z" fill="white"/>
<path d="M83.4475 20.9992L83.375 47.3411C83.375 57.534 83.375 66.5377 84.1362 73.8037C84.9627 81.6738 86.855 89.5438 91.872 95.9644C96.8745 102.385 103.023 104.819 109.163 105.879C114.826 106.854 121.858 106.854 129.811 106.854H159.188C159.283 108.294 159.348 109.837 159.391 111.5H159.5C159.5 109.01 159.5 107.765 159.427 106.297C158.869 97.4673 156.47 88.9922 152.482 81.7574C151.8 80.5681 151.336 79.8619 150.416 78.4403C144.666 69.6318 137.098 58.649 130.5 51.1042C124.627 44.377 116.573 37.0273 109.547 31.0249C103.515 25.8587 100.5 23.2757 96.3598 21.3616C95.1556 20.8093 93.9313 20.3318 92.6912 19.9307C89.9072 19.0479 87.1958 18.7413 83.375 18.6298L83.4475 20.9992Z" fill="#CDCDCD"/>
<rect x="34" y="159" width="49" height="33" rx="16.5" fill="#0049D7"/>
<path d="M46.642 180L44.2557 171.273H45.3295L47.1534 178.381H47.2386L49.0966 171.273H50.2898L52.1477 178.381H52.233L54.0568 171.273H55.1307L52.7443 180H51.6534L49.7273 173.045H49.6591L47.733 180H46.642ZM58.3608 180.136C57.7699 180.136 57.2514 179.996 56.8054 179.714C56.3622 179.433 56.0156 179.04 55.7656 178.534C55.5185 178.028 55.3949 177.437 55.3949 176.761C55.3949 176.08 55.5185 175.484 55.7656 174.976C56.0156 174.467 56.3622 174.072 56.8054 173.791C57.2514 173.51 57.7699 173.369 58.3608 173.369C58.9517 173.369 59.4688 173.51 59.9119 173.791C60.358 174.072 60.7045 174.467 60.9517 174.976C61.2017 175.484 61.3267 176.08 61.3267 176.761C61.3267 177.437 61.2017 178.028 60.9517 178.534C60.7045 179.04 60.358 179.433 59.9119 179.714C59.4688 179.996 58.9517 180.136 58.3608 180.136ZM58.3608 179.233C58.8097 179.233 59.179 179.118 59.4688 178.888C59.7585 178.658 59.973 178.355 60.1122 177.98C60.2514 177.605 60.321 177.199 60.321 176.761C60.321 176.324 60.2514 175.916 60.1122 175.538C59.973 175.161 59.7585 174.855 59.4688 174.622C59.179 174.389 58.8097 174.273 58.3608 174.273C57.9119 174.273 57.5426 174.389 57.2528 174.622C56.9631 174.855 56.7486 175.161 56.6094 175.538C56.4702 175.916 56.4006 176.324 56.4006 176.761C56.4006 177.199 56.4702 177.605 56.6094 177.98C56.7486 178.355 56.9631 178.658 57.2528 178.888C57.5426 179.118 57.9119 179.233 58.3608 179.233ZM62.8619 180V173.455H63.8335V174.443H63.9016C64.021 174.119 64.2369 173.857 64.5494 173.655C64.8619 173.453 65.2141 173.352 65.6062 173.352C65.68 173.352 65.7724 173.354 65.8832 173.357C65.994 173.359 66.0778 173.364 66.1346 173.369V174.392C66.1005 174.384 66.0224 174.371 65.9002 174.354C65.7809 174.334 65.6545 174.324 65.521 174.324C65.2028 174.324 64.9187 174.391 64.6687 174.524C64.4215 174.655 64.2255 174.837 64.0806 175.07C63.9386 175.3 63.8675 175.562 63.8675 175.858V180H62.8619ZM69.5991 180.136C69.0536 180.136 68.5721 179.999 68.1545 179.723C67.7369 179.445 67.4102 179.053 67.1744 178.547C66.9386 178.038 66.8207 177.438 66.8207 176.744C66.8207 176.057 66.9386 175.46 67.1744 174.955C67.4102 174.449 67.7383 174.058 68.1587 173.783C68.5792 173.507 69.065 173.369 69.6161 173.369C70.0423 173.369 70.3789 173.44 70.6261 173.582C70.8761 173.722 71.0664 173.881 71.1971 174.06C71.3306 174.236 71.4343 174.381 71.5082 174.494H71.5934V171.273H72.5991V180H71.6275V178.994H71.5082C71.4343 179.114 71.3292 179.264 71.1928 179.446C71.0565 179.625 70.8619 179.786 70.609 179.928C70.3562 180.067 70.0195 180.136 69.5991 180.136ZM69.7354 179.233C70.1388 179.233 70.4798 179.128 70.7582 178.918C71.0366 178.705 71.2482 178.411 71.3931 178.036C71.538 177.658 71.6104 177.222 71.6104 176.727C71.6104 176.239 71.5394 175.811 71.3974 175.445C71.2553 175.075 71.0451 174.788 70.7667 174.584C70.4883 174.376 70.1445 174.273 69.7354 174.273C69.3093 174.273 68.9542 174.382 68.6701 174.601C68.3888 174.817 68.1772 175.111 68.0352 175.483C67.896 175.852 67.8263 176.267 67.8263 176.727C67.8263 177.193 67.8974 177.616 68.0394 177.997C68.1843 178.375 68.3974 178.676 68.6786 178.901C68.9627 179.122 69.315 179.233 69.7354 179.233Z" fill="white"/>
</svg>
