<svg width="151" height="99" viewBox="0 0 151 99" fill="none" xmlns="http://www.w3.org/2000/svg">
<path d="M148.81 81.108L108.807 6.374C106.7 2.435 102.613 0 98.1441 0C93.6861 0 89.5991 2.435 87.4921 6.374L81.1391 18.233L75.1351 29.457L75.1241 29.467L62.7571 6.374C60.6501 2.435 56.5731 0 52.1051 0C48.3671 0 44.8941 1.705 42.6391 4.574C42.1941 5.135 41.8031 5.728 41.4531 6.374L36.5291 15.586L1.44908 81.108C-0.583924 84.888 -0.467925 89.346 1.73508 93.02C3.93708 96.694 7.81308 98.897 12.1011 98.897H49.9341C54.4021 98.897 58.4901 96.451 60.5971 92.523L69.1101 76.608L75.1141 65.395L75.1251 65.374L89.6631 92.523C91.7701 96.451 95.8471 98.897 100.315 98.897H138.148C142.436 98.897 146.322 96.705 148.525 93.02C150.727 89.356 150.833 84.888 148.81 81.108ZM65.5101 47.457L59.5061 58.66L47.0331 81.955H20.2021L46.1231 33.555L52.1051 22.373L53.9581 25.825L65.5211 47.415L65.5101 47.457ZM103.216 81.955L102.919 81.394L84.7391 47.415L84.7501 47.394L90.7541 36.181L98.1451 22.374L130.048 81.956H103.216V81.955Z" fill="#87B016"/>
<path d="M75.1111 65.4L69.107 76.613L59.5031 58.665L65.507 47.452L75.1111 65.4Z" fill="#536C0D"/>
<path d="M98.1441 22.373L84.7461 47.399L75.1321 29.451L88.5301 4.42499L98.1441 22.373Z" fill="#536C0D"/>
</svg>
